# xmcd
#
# Track frame offsets:
# 150
# 14496
# 28707
# 43604
# 58458
# 70513
# 84674
# 97003
# 109749
# 121846
# 135737
# 148046
# 161768
# 174199
# 188096
# 201029
# 213428
# 227409
#
# Disc length: 3190 seconds
#
#
# Revision: 1
# Processed by: cddbd v1.5.2PL0 Copyright (c) Steve Scherf et al.
# Submitted via: FreeRIP 2.951 
#
DISCID=fa0c7412
DTITLE=T-Bone Walker - The Blues 1929-1950 [CD 1)
DYEAR=1900
DGENRE=Blues
TTITLE0=Trinity River Blues
TTITLE1=Wichita Falls Blues
TTITLE2=T-Bone Blues
TTITLE3=I Got a Break Baby
TTITLE4=Sail on Boogie
TTITLE5=Come Back to Me Baby
TTITLE6=No Worry Blues
TTITLE7=Don't Leave Me Baby
TTITLE8=Bobby Sox Blues
TTITLE9=Don't Give Me the Runaround
TTITLE10=T-Bone Jumps Again
TTITLE11=Call It Stormy Monday
TTITLE12=Midnight Blues
TTITLE13=Triflin' Woman Blues
TTITLE14=Long Skirt Baby
TTITLE15=Too Much Trouble Blues
TTITLE16=The National Blues
TTITLE17=That's Better For Me
EXTD=Father Of The Modern Blues Guitar\n1929 - 1950
EXTT0=
EXTT1=
EXTT2=
EXTT3=
EXTT4=
EXTT5=
EXTT6=
EXTT7=
EXTT8=
EXTT9=
EXTT10=
EXTT11=
EXTT12=
EXTT13=
EXTT14=
EXTT15=
EXTT16=
EXTT17=
PLAYORDER=
